<svg width="35" height="35" viewBox="0 0 35 35" fill="none" xmlns="http://www.w3.org/2000/svg">
<path d="M0 2.50688C0 1.12219 1.15062 0 2.57031 0H32.4297C33.8494 0 35 1.12219 35 2.50688V32.4931C35 33.8778 33.8494 35 32.4297 35H2.57031C1.15062 35 0 33.8778 0 32.4931V2.50688ZM10.8128 29.2994V13.4947H5.56063V29.2994H10.8128ZM8.18781 11.3356C10.0188 11.3356 11.1584 10.1237 11.1584 8.60563C11.1256 7.05469 10.0209 5.87563 8.22281 5.87563C6.42469 5.87563 5.25 7.05688 5.25 8.60563C5.25 10.1237 6.38969 11.3356 8.15281 11.3356H8.18781ZM18.9241 29.2994V20.4728C18.9241 20.0003 18.9591 19.5278 19.0991 19.1909C19.4775 18.2481 20.3416 17.2703 21.7941 17.2703C23.695 17.2703 24.4541 18.7184 24.4541 20.8447V29.2994H29.7062V20.2344C29.7062 15.3781 27.1163 13.1206 23.66 13.1206C20.8731 13.1206 19.6241 14.6519 18.9241 15.7303V15.785H18.8891C18.9007 15.7667 18.9123 15.7485 18.9241 15.7303V13.4947H13.6741C13.7397 14.9778 13.6741 29.2994 13.6741 29.2994H18.9241Z" fill="white"/>
</svg>
