<svg width="25" height="21" viewBox="0 0 25 21" fill="none" xmlns="http://www.w3.org/2000/svg">
<path d="M8.0375 20.2784C9.885 20.29 11.7164 19.9347 13.4255 19.233C15.1346 18.5314 16.6874 17.4974 17.9938 16.191C19.3002 14.8846 20.3343 13.3318 21.0359 11.6227C21.7376 9.91354 22.0929 8.08212 22.0813 6.23462V5.58931C23.0389 4.88766 23.8678 4.02544 24.5312 3.04087C23.6295 3.43527 22.6753 3.69685 21.6984 3.81744C22.7341 3.20032 23.5112 2.22895 23.8859 1.08306C22.9207 1.66214 21.8623 2.06922 20.7578 2.28618C20.014 1.49362 19.0297 0.968277 17.9572 0.791451C16.8848 0.614625 15.7839 0.796169 14.825 1.30799C13.8661 1.81982 13.1026 2.63339 12.6527 3.62283C12.2027 4.61227 12.0914 5.72242 12.3359 6.7815C10.3738 6.68519 8.4539 6.17668 6.70133 5.28908C4.94875 4.40149 3.40277 3.15471 2.16406 1.62993C1.53945 2.71403 1.35012 3.99498 1.63442 5.21341C1.91873 6.43185 2.65541 7.49673 3.69531 8.19244C2.92817 8.16285 2.17878 7.95302 1.50781 7.57994V7.63462C1.501 8.76757 1.88266 9.86863 2.58921 10.7543C3.29575 11.64 4.28449 12.2567 5.39062 12.5018C4.6771 12.6937 3.92969 12.7236 3.20312 12.5893C3.52336 13.5555 4.13465 14.399 4.95318 15.0041C5.7717 15.6092 6.75737 15.9462 7.775 15.969C6.03508 17.3696 3.8726 18.1405 1.63906 18.1565C1.24745 18.1452 0.856755 18.1123 0.46875 18.0581C2.72948 19.4984 5.35694 20.2578 8.0375 20.2456" fill="white"/>
</svg>
