<svg width="32" height="31" viewBox="0 0 32 31" fill="none" xmlns="http://www.w3.org/2000/svg">
<path d="M31.25 0.1875H3.75C2.75544 0.1875 1.80161 0.533202 1.09835 1.14856C0.395088 1.76391 0 2.59851 0 3.46875L0 27.5312C0 28.4015 0.395088 29.2361 1.09835 29.8514C1.80161 30.4668 2.75544 30.8125 3.75 30.8125H14.4727V20.4007H9.55078V15.5H14.4727V11.7648C14.4727 7.51631 17.3633 5.16953 21.7906 5.16953C23.9109 5.16953 26.1281 5.50039 26.1281 5.50039V9.67031H23.6852C21.2781 9.67031 20.5273 10.9773 20.5273 12.3179V15.5H25.9008L25.0414 20.4007H20.5273V30.8125H31.25C32.2446 30.8125 33.1984 30.4668 33.9016 29.8514C34.6049 29.2361 35 28.4015 35 27.5312V3.46875C35 2.59851 34.6049 1.76391 33.9016 1.14856C33.1984 0.533202 32.2446 0.1875 31.25 0.1875Z" fill="white"/>
</svg>
