<svg width="27" height="27" viewBox="0 0 27 27" fill="none" xmlns="http://www.w3.org/2000/svg">
<path d="M26.5477 8.11182C26.533 7.00732 26.3262 5.91379 25.9366 4.88016C25.5988 4.00829 25.0828 3.21649 24.4217 2.55533C23.7605 1.89416 22.9687 1.37819 22.0969 1.04036C21.0765 0.657344 19.9986 0.450237 18.9089 0.427865C17.506 0.365156 17.0612 0.347656 13.5 0.347656C9.93873 0.347656 9.48227 0.347656 8.08956 0.427865C7.00042 0.450402 5.92299 0.657506 4.90311 1.04036C4.03111 1.37795 3.23918 1.89385 2.57799 2.55504C1.9168 3.21623 1.4009 4.00816 1.06331 4.88016C0.679526 5.89972 0.472868 6.9774 0.452272 8.06662C0.389564 9.47099 0.370605 9.91578 0.370605 13.477C0.370605 17.0383 0.370605 17.4933 0.452272 18.8874C0.474147 19.9783 0.679772 21.0545 1.06331 22.0768C1.40147 22.9486 1.91775 23.7402 2.57916 24.4011C3.24057 25.062 4.03257 25.5777 4.90456 25.9152C5.92165 26.3136 6.99927 26.5355 8.09102 26.5714C9.4954 26.6341 9.94019 26.6531 13.5014 26.6531C17.0627 26.6531 17.5191 26.6531 18.9119 26.5714C20.0015 26.5499 21.0795 26.3433 22.0998 25.9604C22.9714 25.6222 23.763 25.106 24.4241 24.4449C25.0852 23.7838 25.6013 22.9922 25.9396 22.1206C26.3231 21.0997 26.5287 20.0235 26.5506 18.9312C26.6133 17.5283 26.6323 17.0835 26.6323 13.5208C26.6294 9.95953 26.6294 9.50745 26.5477 8.11182ZM13.4912 20.2116C9.76665 20.2116 6.74935 17.1943 6.74935 13.4697C6.74935 9.74516 9.76665 6.72786 13.4912 6.72786C15.2793 6.72786 16.9941 7.43817 18.2585 8.70251C19.5228 9.96686 20.2331 11.6817 20.2331 13.4697C20.2331 15.2578 19.5228 16.9726 18.2585 18.237C16.9941 19.5013 15.2793 20.2116 13.4912 20.2116ZM20.5014 8.05057C20.2949 8.05076 20.0904 8.01023 19.8996 7.9313C19.7088 7.85236 19.5354 7.73657 19.3894 7.59055C19.2434 7.44453 19.1276 7.27115 19.0486 7.08033C18.9697 6.88951 18.9292 6.68499 18.9294 6.47849C18.9294 6.27214 18.97 6.0678 19.049 5.87716C19.1279 5.68651 19.2437 5.51329 19.3896 5.36737C19.5355 5.22146 19.7087 5.10572 19.8994 5.02675C20.09 4.94778 20.2944 4.90714 20.5007 4.90714C20.7071 4.90714 20.9114 4.94778 21.102 5.02675C21.2927 5.10572 21.4659 5.22146 21.6118 5.36737C21.7577 5.51329 21.8735 5.68651 21.9525 5.87716C22.0314 6.0678 22.0721 6.27214 22.0721 6.47849C22.0721 7.34766 21.3691 8.05057 20.5014 8.05057Z" fill="white"/>
</svg>
