<svg width="31" height="23" viewBox="0 0 31 23" fill="none" xmlns="http://www.w3.org/2000/svg">
<path d="M25.3146 0.889763L23.448 2.3481L15.5001 8.25435L7.55213 2.28976L5.68547 0.83143C5.24572 0.467642 4.70889 0.240863 4.14151 0.179191C3.57413 0.117518 3.00113 0.223661 2.49348 0.484469C1.98583 0.745278 1.56586 1.14929 1.28559 1.64645C1.00532 2.14362 0.877064 2.71209 0.916718 3.28143V20.1835C0.916718 20.7095 1.12568 21.214 1.49762 21.5859C1.86957 21.9579 2.37404 22.1668 2.90005 22.1668H7.55213V10.9085L15.5001 16.8731L23.448 10.9085V22.1668H28.1C28.6261 22.1668 29.1305 21.9579 29.5025 21.5859C29.8744 21.214 30.0834 20.7095 30.0834 20.1835V3.28143C30.1108 2.717 29.9736 2.15677 29.6885 1.66884C29.4035 1.18091 28.9828 0.786289 28.4777 0.532954C27.9726 0.279618 27.4047 0.178475 26.8432 0.241819C26.2817 0.305162 25.7506 0.530265 25.3146 0.889763Z" fill="white"/>
</svg>
